<?xml version="1.0" standalone="no"?>
<!DOCTYPE svg PUBLIC "-//W3C//DTD SVG 20010904//EN"
 "http://www.w3.org/TR/2001/REC-SVG-20010904/DTD/svg10.dtd">
<svg version="1.0" xmlns="http://www.w3.org/2000/svg"
 width="479.000000pt" height="490.000000pt" viewBox="0 0 479.000000 490.000000"
 preserveAspectRatio="xMidYMid meet">
<metadata>
Created by potrace 1.16, written by Peter Selinger 2001-2019
</metadata>
<g transform="translate(0.000000,490.000000) scale(0.100000,-0.100000)"
fill="#000000" stroke="none">
<path d="M3141 4692 c-133 -173 -280 -396 -403 -612 -103 -181 -384 -793 -461
-1005 -21 -60 -58 -172 -82 -248 -41 -135 -43 -140 -101 -198 l-58 -59 -63 0
c-80 0 -105 -21 -122 -102 -7 -32 -26 -85 -43 -119 -44 -88 -209 -255 -356
-362 -318 -229 -572 -447 -832 -714 -178 -182 -270 -292 -353 -425 -101 -163
-148 -292 -155 -428 -4 -76 -2 -88 18 -113 23 -29 167 -151 212 -180 98 -62
385 59 633 266 102 86 162 146 309 312 260 292 445 533 631 820 147 227 312
379 473 439 40 15 70 35 100 67 l43 47 -11 48 c-6 27 -16 60 -22 72 -11 22 -7
29 53 87 50 49 74 65 105 70 21 3 48 10 59 15 116 47 151 60 159 60 17 0 446
187 523 229 38 20 261 176 338 236 139 108 329 269 448 379 179 166 499 529
481 546 -5 4 -128 88 -274 186 -146 97 -468 314 -717 480 -248 167 -453 304
-455 304 -2 -1 -37 -44 -77 -98z"/>
</g>
</svg>
